<svg width="24" height="24" viewBox="0 0 24 24" fill="none" xmlns="http://www.w3.org/2000/svg">
<path d="M0.703125 17.975H23.2969C23.6852 17.975 24 17.6602 24 17.2719C24 16.8836 23.6852 16.5688 23.2969 16.5688H23.2245C23.0567 13.8292 21.9104 11.2768 19.9528 9.31917C17.9951 7.36153 15.4427 6.21525 12.7031 6.04739V4.41877H15.0126C15.4009 4.41877 15.7157 4.10395 15.7157 3.71564C15.7157 1.66683 14.0488 0 12 0C9.95123 0 8.28441 1.66683 8.28441 3.71564C8.28441 4.10395 8.59922 4.41877 8.98753 4.41877H11.2969V6.04739C8.55727 6.21525 6.00488 7.36148 4.04723 9.31917C2.08959 11.2769 0.943312 13.8292 0.775453 16.5688H0.703125C0.314812 16.5688 0 16.8836 0 17.2719C0 17.6602 0.314812 17.975 0.703125 17.975V17.975Z" fill="black"/>
<path d="M21.7906 19.5812H2.20936C0.991125 19.5812 0 20.5724 0 21.7906C0 23.0089 0.991125 24 2.20936 24H21.7906C23.0089 24 24 23.0089 24 21.7906C24 20.5724 23.0089 19.5812 21.7906 19.5812Z" fill="black"/>
</svg>
