<svg width="24" height="24" viewBox="0 0 24 24" fill="none" xmlns="http://www.w3.org/2000/svg">
<g clip-path="url(#clip0)">
<path d="M5.99768 0C4.0237 0 2.4024 1.63302 2.4024 3.607V22.8021C2.40437 23.4649 2.94329 24.0006 3.60605 23.9986C3.79022 23.9981 3.97181 23.9551 4.13672 23.8731L6.55544 22.6684C7.64467 22.1238 8.93592 22.2061 9.94916 22.8817C11.1878 23.7075 12.812 23.7075 14.0507 22.8817C15.0708 22.2049 16.3671 22.1278 17.4608 22.6778L19.8608 23.8731C20.4537 24.1695 21.1745 23.9291 21.4708 23.3363C21.5537 23.1704 21.5971 22.9876 21.5975 22.8021V3.607C21.5975 1.63302 19.9738 0 17.9999 0L5.99768 0ZM8.39766 4.8023H15.5999C16.2626 4.80487 16.7978 5.34421 16.7952 6.00697C16.7926 6.66608 16.259 7.19969 15.5999 7.20227H8.39766C7.7386 7.19969 7.20494 6.66608 7.20236 6.00697C7.19978 5.34421 7.7349 4.80487 8.39766 4.8023ZM8.39766 9.6022H12.0047C12.6674 9.60478 13.2025 10.1441 13.2 10.8069C13.1987 11.4669 12.6646 12.0019 12.0047 12.0045H8.39766C7.73767 12.0019 7.20362 11.4669 7.20236 10.8069C7.19978 10.1442 7.7349 9.60483 8.39766 9.6022Z" fill="black"/>
</g>
<defs>
<clipPath id="clip0">
<rect width="24" height="24" fill="white"/>
</clipPath>
</defs>
</svg>
