<svg width="24" height="24" viewBox="0 0 24 24" fill="none" xmlns="http://www.w3.org/2000/svg">
<path d="M20.1751 18.525V2.325C20.1751 1.875 19.8751 1.575 19.4251 1.575L6.07507 1.5C4.80007 1.5 3.82507 2.55 3.82507 3.75V20.1C3.82507 21.45 4.87507 22.5 6.22507 22.5H19.4251C19.6501 22.5 19.9501 22.35 20.1001 22.125C20.2501 21.9 20.2501 21.6 20.1001 21.375C19.6501 20.475 19.6501 19.65 20.1001 18.75C20.1001 18.75 20.1751 18.675 20.1751 18.525V18.525ZM8.92507 6H15.0751C15.5251 6 15.8251 6.3 15.8251 6.75C15.8251 7.2 15.5251 7.5 15.0751 7.5H8.92507C8.47507 7.5 8.17507 7.2 8.17507 6.75C8.17507 6.3 8.55007 6 8.92507 6ZM8.92507 9.075H15.0751C15.5251 9.075 15.8251 9.375 15.8251 9.825C15.8251 10.275 15.5251 10.575 15.0751 10.575H8.92507C8.47507 10.575 8.17507 10.275 8.17507 9.825C8.17507 9.375 8.55007 9.075 8.92507 9.075ZM8.92507 12.075H15.0751C15.5251 12.075 15.8251 12.375 15.8251 12.825C15.8251 13.275 15.5251 13.575 15.0751 13.575H8.92507C8.47507 13.575 8.17507 13.275 8.17507 12.825C8.17507 12.375 8.55007 12.075 8.92507 12.075ZM18.3751 21H6.22507C5.70007 21 5.32507 20.625 5.32507 20.1C5.32507 19.575 5.70007 19.2 6.22507 19.2H18.3751C18.2251 19.8 18.2251 20.4 18.3751 21Z" fill="black"/>
</svg>
