<svg width="24" height="24" viewBox="0 0 24 24" fill="none" xmlns="http://www.w3.org/2000/svg">
<g clip-path="url(#clip0)">
<path d="M0.702019 18.3284H19.0778C19.2427 18.3284 19.402 18.2707 19.5283 18.1656C19.7048 18.0178 23.7309 14.5543 23.9764 7.07788H4.24115C3.99659 13.8645 0.288704 17.0544 0.250171 17.0862C0.0242702 17.2771 -0.058843 17.5889 0.0427866 17.8663C0.143713 18.143 0.40674 18.3284 0.702019 18.3284V18.3284Z" fill="black"/>
<path d="M23.2968 2.85894H19.781V2.15579C19.781 1.76202 19.4716 1.45263 19.0778 1.45263C18.684 1.45263 18.3747 1.76202 18.3747 2.15579V2.85894H14.812V2.15579C14.812 1.76202 14.5026 1.45263 14.1088 1.45263C13.7151 1.45263 13.4057 1.76202 13.4057 2.15579V2.85894H9.8899V2.15579C9.8899 1.76202 9.58051 1.45263 9.18674 1.45263C8.79298 1.45263 8.48359 1.76202 8.48359 2.15579V2.85894H4.96781C4.57404 2.85894 4.26465 3.16833 4.26465 3.5621V5.67157H23.9999V3.5621C23.9999 3.16833 23.6905 2.85894 23.2968 2.85894Z" fill="black"/>
<path d="M20.4313 19.2438C20.0495 19.5617 19.5702 19.7347 19.0779 19.7347H4.26471V21.8442C4.26471 22.2329 4.57921 22.5474 4.96787 22.5474H23.2968C23.6855 22.5474 24 22.2329 24 21.8442V13.962C22.6443 17.288 20.7525 18.9749 20.4313 19.2438Z" fill="black"/>
</g>
<defs>
<clipPath id="clip0">
<rect width="24" height="24" fill="white"/>
</clipPath>
</defs>
</svg>
