<svg width="24" height="24" viewBox="0 0 24 24" fill="none" xmlns="http://www.w3.org/2000/svg">
<g clip-path="url(#clip0)">
<path d="M14.894 2.32786C14.6027 0.998203 13.4157 0 12 0C10.5842 0 9.39723 0.998203 9.10594 2.32781C7.77634 2.61914 6.77814 3.80606 6.77814 5.22183C6.77814 6.85538 8.10709 8.18438 9.74063 8.18438H14.2593C15.8929 8.18438 17.2218 6.85538 17.2218 5.22188C17.2218 3.80611 16.2236 2.61919 14.894 2.32786Z" fill="black"/>
<path d="M20.2844 4.51874H18.5701C18.6081 4.75035 18.6282 4.98543 18.6282 5.22186C18.6282 7.63082 16.6683 9.59061 14.2594 9.59061H9.74073C7.33178 9.59061 5.37198 7.63077 5.37198 5.22186C5.37198 4.98543 5.39214 4.75035 5.4301 4.51874H3.7157C3.32739 4.51874 3.01257 4.83355 3.01257 5.22186V23.2969C3.01257 23.6853 3.32739 24 3.7157 24H20.2845C20.6728 24 20.9876 23.6853 20.9876 23.2969V5.22186C20.9875 4.83355 20.6728 4.51874 20.2844 4.51874ZM15.7657 20.7493H8.23445C7.84614 20.7493 7.53132 20.4344 7.53132 20.0461C7.53132 19.6578 7.84614 19.343 8.23445 19.343H15.7657C16.154 19.343 16.4688 19.6578 16.4688 20.0461C16.4688 20.4344 16.154 20.7493 15.7657 20.7493ZM15.7657 16.7954H8.23445C7.84614 16.7954 7.53132 16.4805 7.53132 16.0923C7.53132 15.7039 7.84614 15.3891 8.23445 15.3891H15.7657C16.154 15.3891 16.4688 15.7039 16.4688 16.0923C16.4688 16.4805 16.154 16.7954 15.7657 16.7954ZM15.7657 12.8415H8.23445C7.84614 12.8415 7.53132 12.5266 7.53132 12.1383C7.53132 11.75 7.84614 11.4352 8.23445 11.4352H15.7657C16.154 11.4352 16.4688 11.75 16.4688 12.1383C16.4688 12.5266 16.154 12.8415 15.7657 12.8415Z" fill="black"/>
</g>
<defs>
<clipPath id="clip0">
<rect width="24" height="24" fill="white"/>
</clipPath>
</defs>
</svg>
