<svg width="24" height="24" viewBox="0 0 24 24" fill="none" xmlns="http://www.w3.org/2000/svg">
<path d="M8.5 1H3.5C2.11929 1 1 2.11929 1 3.5V5.5C1 6.88071 2.11929 8 3.5 8H8.5C9.88071 8 11 6.88071 11 5.5V3.5C11 2.11929 9.88071 1 8.5 1Z" fill="black"/>
<path d="M20.5 16H15.5C14.1193 16 13 17.1193 13 18.5V20.5C13 21.8807 14.1193 23 15.5 23H20.5C21.8807 23 23 21.8807 23 20.5V18.5C23 17.1193 21.8807 16 20.5 16Z" fill="black"/>
<path d="M8.5 9H3.5C2.11929 9 1 10.1193 1 11.5V20.5C1 21.8807 2.11929 23 3.5 23H8.5C9.88071 23 11 21.8807 11 20.5V11.5C11 10.1193 9.88071 9 8.5 9Z" fill="black"/>
<path d="M20.5 1H15.5C14.1193 1 13 2.11929 13 3.5V12.5C13 13.8807 14.1193 15 15.5 15H20.5C21.8807 15 23 13.8807 23 12.5V3.5C23 2.11929 21.8807 1 20.5 1Z" fill="black"/>
</svg>
