<svg width="24" height="24" viewBox="0 0 24 24" fill="none" xmlns="http://www.w3.org/2000/svg">
<g clip-path="url(#clip0)">
<path d="M23.5431 4.17827L19.8146 0.449847C19.225 -0.139736 18.1971 -0.139736 17.6065 0.449847L16.705 1.35143L22.6425 7.28795L23.5431 6.3874C23.8384 6.09209 24.0001 5.69971 24.0001 5.28234C24.0001 4.86493 23.8384 4.47254 23.5431 4.17827Z" fill="black"/>
<path d="M0.0203255 23.3276C-0.0318455 23.5092 0.018263 23.7054 0.152839 23.84C0.251978 23.9391 0.385522 23.9923 0.522254 23.9923C0.569222 23.9923 0.617221 23.9861 0.66522 23.9725L7.67446 21.97L2.02387 16.3184L0.0203255 23.3276Z" fill="black"/>
<path d="M2.61872 15.4378L8.55518 21.3743L21.9046 8.02483L15.9682 2.08837L2.61872 15.4378Z" fill="black"/>
</g>
<defs>
<clipPath id="clip0">
<rect width="24" height="24" fill="white"/>
</clipPath>
</defs>
</svg>
