<svg width="24" height="24" viewBox="0 0 24 24" fill="none" xmlns="http://www.w3.org/2000/svg">
<path d="M23.0353 19.0744C23.3602 16.2755 23.3602 13.4433 23.0353 10.6444C23.6466 10.1147 24 9.35297 24 8.53125C24 6.98062 22.7381 5.71875 21.1875 5.71875C20.3658 5.71875 19.6041 6.07266 19.0744 6.68344C16.2755 6.35859 13.4433 6.35859 10.6444 6.68344C10.1147 6.07266 9.35297 5.71875 8.53125 5.71875C6.98062 5.71875 5.71875 6.98062 5.71875 8.53125C5.71875 9.35297 6.07219 10.1147 6.68344 10.6444C6.35859 13.4433 6.35859 16.2755 6.68344 19.0744C6.07266 19.6041 5.71875 20.3658 5.71875 21.1875C5.71875 22.7381 6.98062 24 8.53125 24C9.35297 24 10.1147 23.6461 10.6444 23.0353C13.4433 23.3602 16.2755 23.3602 19.0744 23.0353C19.6041 23.6461 20.3658 24 21.1875 24C22.7381 24 24 22.7381 24 21.1875C24 20.3658 23.6461 19.6041 23.0353 19.0744V19.0744ZM11.3438 19.7812H9.9375V18.375H11.3438V19.7812ZM11.3438 15.5625H9.9375V14.1562H11.3438V15.5625ZM11.3438 11.3438H9.9375V9.9375H11.3438V11.3438ZM15.5625 19.7812H14.1562V18.375H15.5625V19.7812ZM15.5625 15.5625H14.1562V14.1562H15.5625V15.5625ZM15.5625 11.3438H14.1562V9.9375H15.5625V11.3438ZM19.7812 19.7812H18.375V18.375H19.7812V19.7812ZM19.7812 15.5625H18.375V14.1562H19.7812V15.5625ZM19.7812 11.3438H18.375V9.9375H19.7812V11.3438Z" fill="black"/>
<path d="M17.3166 4.92563C17.3241 4.98844 17.3311 5.05125 17.3377 5.11453C16.5117 5.06063 15.6834 5.03344 14.8594 5.03344C13.6205 5.03344 12.3708 5.09484 11.1356 5.21625C10.3997 4.63547 9.48422 4.3125 8.53125 4.3125C6.20484 4.3125 4.3125 6.20484 4.3125 8.53125C4.3125 9.48422 4.63547 10.3997 5.21625 11.1356C5.01328 13.1953 4.97953 15.2723 5.11406 17.3377C5.05125 17.3311 4.98844 17.3241 4.92563 17.3166C4.39594 17.9278 3.63422 18.2812 2.8125 18.2812C1.26187 18.2812 0 17.0194 0 15.4688C0 14.647 0.353906 13.8853 0.964687 13.3556C0.639844 10.5567 0.639844 7.72453 0.964687 4.92563C0.353437 4.39594 0 3.63422 0 2.8125C0 1.26187 1.26187 0 2.8125 0C3.63422 0 4.39594 0.353906 4.92563 0.964687C7.72453 0.639844 10.5567 0.639844 13.3556 0.964687C13.8853 0.353906 14.647 0 15.4688 0C17.0194 0 18.2812 1.26187 18.2812 2.8125C18.2812 3.63422 17.9278 4.39594 17.3166 4.92563V4.92563Z" fill="black"/>
</svg>
