<svg width="24" height="24" viewBox="0 0 24 24" fill="none" xmlns="http://www.w3.org/2000/svg">
<g clip-path="url(#clip0)">
<path d="M12.0014 0.00268555C11.9853 0.00268555 11.9697 0.00273242 11.9536 0.0027793C8.74834 0.0151542 5.73973 1.27473 3.482 3.54942C1.22427 5.82416 -0.012283 8.84178 9.19899e-05 12.0463C0.0124669 15.2508 1.27232 18.2588 3.54753 20.516C5.81135 22.7619 8.81134 23.9971 11.9987 23.9972C12.0148 23.9972 12.0303 23.9972 12.0464 23.9971C15.2517 23.9847 18.2603 22.7252 20.518 20.4504C22.7758 18.1757 24.0123 15.1582 23.9999 11.9536C23.9875 8.74901 22.7277 5.7411 20.4525 3.48389C18.1886 1.23798 15.1887 0.00268555 12.0014 0.00268555V0.00268555ZM11.967 3.53152H11.9701C12.4091 3.53152 12.7658 3.88645 12.7675 4.32576L12.7851 8.87712C12.7868 9.31746 12.4311 9.67577 11.9907 9.67746H11.9876C11.5486 9.67746 11.1919 9.32252 11.1901 8.88321L11.1726 4.33186C11.1709 3.89156 11.5266 3.53325 11.967 3.53152V3.53152ZM12.1985 18.9547C12.1306 18.9566 12.0625 18.9576 11.9949 18.9576C10.2305 18.9576 8.56023 18.2948 7.27169 17.0788C5.93374 15.8161 5.16767 14.1081 5.11465 12.2694C5.06576 10.5735 5.64105 8.92615 6.7346 7.63077C7.0187 7.29425 7.52181 7.25164 7.85837 7.5357C8.19493 7.81967 8.2375 8.32273 7.95344 8.65925C7.1133 9.6544 6.67132 10.9202 6.70891 12.2234C6.74964 13.6364 7.33834 14.9489 8.3665 15.9192C9.39465 16.8895 10.7406 17.4018 12.1525 17.3607C15.07 17.2766 17.3751 14.8352 17.291 11.9184C17.2555 10.6884 16.7895 9.5029 15.9788 8.5804C15.6881 8.24961 15.7206 7.74584 16.0515 7.45522C16.3824 7.1646 16.8862 7.19713 17.177 7.52792C18.2325 8.7289 18.8391 10.2718 18.8853 11.8724C18.9948 15.6682 15.9951 18.8453 12.1985 18.9547Z" fill="black"/>
</g>
<defs>
<clipPath id="clip0">
<rect width="24" height="24" fill="white"/>
</clipPath>
</defs>
</svg>
