<svg width="24" height="24" viewBox="0 0 24 24" fill="none" xmlns="http://www.w3.org/2000/svg">
<path d="M23.1637 13.2225V6.11255C23.1626 5.31723 22.8462 4.55478 22.2839 3.99241C21.7215 3.43003 20.959 3.11361 20.1637 3.11255H12.3112C11.9172 3.11245 11.5271 3.18998 11.163 3.34071C10.799 3.49144 10.4683 3.71241 10.1897 3.99101C9.91108 4.2696 9.6901 4.60036 9.53937 4.96438C9.38864 5.3284 9.31111 5.71856 9.31121 6.11255V7.69505H3.12371C2.51738 7.69619 1.9362 7.93755 1.50746 8.3663C1.07872 8.79504 0.837349 9.37622 0.836213 9.98255V13.7475C0.833036 14.8603 1.071 15.9606 1.53371 16.9725C1.85589 17.6898 2.04399 18.46 2.08871 19.2451L2.22371 21.8101C2.24444 22.1982 2.41297 22.5637 2.69471 22.8315C2.97645 23.0993 3.35001 23.249 3.73871 23.2501H4.86371C5.25359 23.2505 5.6288 23.1015 5.91205 22.8336C6.1953 22.5657 6.36501 22.1993 6.38621 21.8101L6.52121 19.2451C6.56594 18.46 6.75404 17.6898 7.07621 16.9725C7.53893 15.9606 7.77689 14.8603 7.77371 13.7475V9.32255C7.77287 9.27966 7.76785 9.23696 7.75871 9.19505H11.6137C11.8126 9.19505 12.0034 9.27407 12.144 9.41472C12.2847 9.55537 12.3637 9.74614 12.3637 9.94505C12.3637 10.144 12.2847 10.3347 12.144 10.4754C12.0034 10.616 11.8126 10.695 11.6137 10.695H9.31121V13.2225C9.31228 14.0179 9.62869 14.7803 10.1911 15.3427C10.7534 15.9051 11.5159 16.2215 12.3112 16.2225H12.9317L11.6493 19.0892C11.6089 19.1791 11.5866 19.2761 11.5837 19.3746C11.5808 19.4731 11.5974 19.5713 11.6325 19.6634C11.6676 19.7555 11.7205 19.8398 11.7882 19.9115C11.8559 19.9831 11.937 20.0407 12.027 20.081C12.117 20.1212 12.2141 20.1433 12.3126 20.1461C12.4111 20.1488 12.5092 20.132 12.6013 20.0968C12.6934 20.0615 12.7776 20.0084 12.8491 19.9406C12.9206 19.8728 12.9781 19.7915 13.0182 19.7015L14.5751 16.2225H17.8999L19.4562 19.7015C19.4962 19.7917 19.5536 19.8731 19.6251 19.9411C19.6967 20.0091 19.7809 20.0623 19.8731 20.0976C19.9652 20.133 20.0634 20.1498 20.1621 20.1472C20.2608 20.1445 20.3579 20.1224 20.448 20.0821C20.5381 20.0419 20.6194 19.9842 20.6872 19.9124C20.7549 19.8407 20.8079 19.7563 20.843 19.664C20.8781 19.5718 20.8946 19.4735 20.8917 19.3749C20.8887 19.2762 20.8663 19.1791 20.8258 19.0892L19.5434 16.2225H20.1637C20.9586 16.2202 21.7203 15.9034 22.2824 15.3413C22.8446 14.7792 23.1614 14.0175 23.1637 13.2225V13.2225ZM17.4037 13.4925H13.9462C13.7473 13.4925 13.5565 13.4135 13.4159 13.2729C13.2752 13.1322 13.1962 12.9415 13.1962 12.7425C13.1962 12.5436 13.2752 12.3529 13.4159 12.2122C13.5565 12.0716 13.7473 11.9925 13.9462 11.9925H17.4037C17.6026 11.9925 17.7934 12.0716 17.934 12.2122C18.0747 12.3529 18.1537 12.5436 18.1537 12.7425C18.1537 12.9415 18.0747 13.1322 17.934 13.2729C17.7934 13.4135 17.6026 13.4925 17.4037 13.4925ZM18.5287 10.4175H13.9462C13.7473 10.4175 13.5565 10.3385 13.4159 10.1979C13.2752 10.0572 13.1962 9.86646 13.1962 9.66755C13.1962 9.46864 13.2752 9.27787 13.4159 9.13722C13.5565 8.99657 13.7473 8.91755 13.9462 8.91755H18.5287C18.7276 8.91755 18.9184 8.99657 19.059 9.13722C19.1997 9.27787 19.2787 9.46864 19.2787 9.66755C19.2787 9.86646 19.1997 10.0572 19.059 10.1979C18.9184 10.3385 18.7276 10.4175 18.5287 10.4175ZM18.5287 7.34255H13.9462C13.7473 7.34255 13.5565 7.26353 13.4159 7.12288C13.2752 6.98223 13.1962 6.79146 13.1962 6.59255C13.1962 6.39364 13.2752 6.20287 13.4159 6.06222C13.5565 5.92157 13.7473 5.84255 13.9462 5.84255H18.5287C18.7276 5.84255 18.9184 5.92157 19.059 6.06222C19.1997 6.20287 19.2787 6.39364 19.2787 6.59255C19.2787 6.79146 19.1997 6.98223 19.059 7.12288C18.9184 7.26353 18.7276 7.34255 18.5287 7.34255Z" fill="black"/>
<path d="M4.30132 6.765C4.89615 6.765 5.47762 6.58861 5.9722 6.25815C6.46678 5.92768 6.85226 5.45797 7.07989 4.90842C7.30752 4.35887 7.36708 3.75417 7.25103 3.17077C7.13499 2.58737 6.84855 2.05148 6.42795 1.63088C6.00734 1.21027 5.47146 0.923835 4.88806 0.80779C4.30466 0.691745 3.69995 0.751303 3.1504 0.978934C2.60085 1.20656 2.13115 1.59204 1.80068 2.08662C1.47021 2.5812 1.29382 3.16267 1.29382 3.7575C1.29416 4.55504 1.61112 5.31981 2.17507 5.88376C2.73901 6.4477 3.50379 6.76467 4.30132 6.765V6.765Z" fill="black"/>
</svg>
