<svg width="24" height="24" viewBox="0 0 24 24" fill="none" xmlns="http://www.w3.org/2000/svg">
<path d="M21.2904 1.68146C21.2904 0.754362 20.536 7.62939e-06 19.6089 7.62939e-06H4.39117C3.46407 7.62939e-06 2.70972 0.754362 2.70972 1.68146V5.80646H21.2904V1.68146Z" fill="black"/>
<path d="M22.7056 7.35484H1.29434C0.79402 7.35484 0.387085 7.76177 0.387085 8.2621V17.2863C0.387085 17.7866 0.79402 18.1935 1.29434 18.1935H4.64515V15.2298C4.64515 13.8755 5.74644 12.7742 7.10079 12.7742H16.8992C18.2535 12.7742 19.3548 13.8755 19.3548 15.2298V18.1935H22.7056C23.206 18.1935 23.6129 17.7866 23.6129 17.2863V8.2621C23.6129 7.76177 23.206 7.35484 22.7056 7.35484ZM20.5161 10.8387H19.3548C18.9271 10.8387 18.5806 10.4923 18.5806 10.0645C18.5806 9.63677 18.9271 9.29032 19.3548 9.29032H20.5161C20.9439 9.29032 21.2903 9.63677 21.2903 10.0645C21.2903 10.4923 20.9439 10.8387 20.5161 10.8387ZM16.8992 14.3226H7.10079C6.60047 14.3226 6.19354 14.7295 6.19354 15.2298V23.0927C6.19354 23.5931 6.60047 24 7.10079 24H16.8992C17.3995 24 17.8064 23.5931 17.8064 23.0927V15.2298C17.8064 14.7295 17.3995 14.3226 16.8992 14.3226ZM14.3226 21.6774H9.67741C9.24967 21.6774 8.90321 21.331 8.90321 20.9032C8.90321 20.4755 9.24967 20.129 9.67741 20.129H14.3226C14.7503 20.129 15.0968 20.4755 15.0968 20.9032C15.0968 21.331 14.7503 21.6774 14.3226 21.6774ZM14.3226 18.1935H9.67741C9.24967 18.1935 8.90321 17.8471 8.90321 17.4194C8.90321 16.9916 9.24967 16.6452 9.67741 16.6452H14.3226C14.7503 16.6452 15.0968 16.9916 15.0968 17.4194C15.0968 17.8471 14.7503 18.1935 14.3226 18.1935Z" fill="black"/>
</svg>
