<svg width="24" height="24" viewBox="0 0 24 24" fill="none" xmlns="http://www.w3.org/2000/svg">
<g clip-path="url(#clip0)">
<path fill-rule="evenodd" clip-rule="evenodd" d="M23.0804 4.9006C22.1594 3.63342 20.5467 2.48967 18.5393 1.68014C16.5426 0.875017 14.2244 0.429752 12.0115 0.426611C9.79837 0.42108 7.47726 0.861751 5.47776 1.6606C3.46682 2.46408 1.85029 3.60286 0.926009 4.86703C0.0382898 6.08119 -0.217554 7.38989 0.186087 8.65167C0.447977 9.47016 1.21181 10.0209 2.08724 10.0222L5.08495 10.025H5.08795C5.6857 10.025 6.24731 9.76331 6.62896 9.3068C7.00659 8.85516 7.16296 8.26491 7.05815 7.68731C7.05506 7.67034 7.05135 7.65352 7.04709 7.63678L6.88935 7.02356C7.76282 6.6068 9.74188 5.80158 12.0022 5.81438C14.261 5.82595 16.2387 6.6307 17.1132 7.04766L16.9529 7.65741C16.9484 7.6747 16.9445 7.69205 16.9413 7.70953C16.8348 8.2868 16.9896 8.87747 17.3658 9.33019C17.7469 9.78863 18.3089 10.052 18.9081 10.0529L21.9059 10.0557H21.9089C22.7826 10.0556 23.5467 9.50742 23.8105 8.69063C24.218 7.42917 23.9655 6.11864 23.0804 4.9006ZM18.7779 13.116L16.5424 10.7687C16.4072 10.6267 16.2198 10.5465 16.0238 10.5465H14.5792V9.57037C14.5792 9.17489 14.2585 8.85422 13.863 8.85422C13.4675 8.85422 13.1468 9.17484 13.1468 9.57037V10.5465H10.8536V9.57037C10.8536 9.17489 10.533 8.85422 10.1375 8.85422C9.74194 8.85422 9.42131 9.17484 9.42131 9.57037V10.5465H7.97667C7.78069 10.5465 7.59323 10.6268 7.45809 10.7687L5.22262 13.116C3.46987 14.9564 2.50458 17.3696 2.50458 19.911V22.8573C2.50458 23.2528 2.8252 23.5734 3.22073 23.5734H20.7797C21.1753 23.5734 21.4959 23.2528 21.4959 22.8573V19.911C21.4959 17.3696 20.5306 14.9564 18.7779 13.116ZM12.0002 20.9557C9.93351 20.9557 8.25216 19.2742 8.25216 17.2075C8.25216 15.1409 9.93356 13.4595 12.0002 13.4595C14.0669 13.4595 15.7483 15.1409 15.7483 17.2075C15.7483 19.2742 14.0669 20.9557 12.0002 20.9557ZM9.68451 17.2075C9.68451 15.9306 10.7233 14.8918 12.0003 14.8918C13.2772 14.8918 14.316 15.9307 14.316 17.2075C14.316 18.4845 13.2772 19.5233 12.0003 19.5233C10.7234 19.5233 9.68451 18.4845 9.68451 17.2075Z" fill="black"/>
</g>
<defs>
<clipPath id="clip0">
<rect width="24" height="24" fill="white"/>
</clipPath>
</defs>
</svg>
