<svg width="24" height="24" viewBox="0 0 24 24" fill="none" xmlns="http://www.w3.org/2000/svg">
<path d="M12.0016 12.4626C15.4302 12.4626 18.2329 9.6599 18.2329 6.2313C18.2329 2.80271 15.4302 0 12.0016 0C8.57304 0 5.77039 2.80271 5.77039 6.2313C5.77039 9.6599 8.57309 12.4626 12.0016 12.4626Z" fill="black"/>
<path d="M22.6956 17.4422C22.5323 17.034 22.3147 16.6531 22.0698 16.2993C20.818 14.4489 18.8861 13.2245 16.7092 12.9251C16.4372 12.8979 16.1378 12.9523 15.9201 13.1156C14.7773 13.9591 13.4167 14.3945 12.0017 14.3945C10.5867 14.3945 9.22623 13.9591 8.08336 13.1156C7.86565 12.9523 7.56633 12.8707 7.29425 12.9251C5.11737 13.2245 3.1582 14.4489 1.93372 16.2993C1.68883 16.6531 1.47112 17.0612 1.30789 17.4422C1.22628 17.6055 1.25346 17.7959 1.33508 17.9592C1.55279 18.3401 1.82487 18.7211 2.06977 19.0476C2.4507 19.5647 2.85888 20.0272 3.32148 20.4626C3.70242 20.8435 4.13779 21.1973 4.5732 21.551C6.72284 23.1565 9.30789 24 11.9746 24C14.6412 24 17.2263 23.1565 19.3759 21.551C19.8113 21.2245 20.2466 20.8435 20.6276 20.4626C21.063 20.0272 21.4984 19.5646 21.8794 19.0476C22.1514 18.6939 22.3964 18.3401 22.614 17.9592C22.75 17.7959 22.7772 17.6054 22.6956 17.4422Z" fill="black"/>
</svg>
